<svg width="646" height="389" viewBox="0 0 646 389" fill="none" xmlns="http://www.w3.org/2000/svg">
<path d="M645 1L474.5 192H9.5" stroke="white" stroke-width="2" stroke-miterlimit="10" stroke-linecap="round" stroke-linejoin="round"/>
<path d="M12.796 228.592L10.934 231H6.23C5.418 231 4.66667 230.879 3.976 230.636C3.28533 230.393 2.688 230.062 2.184 229.642C1.68933 229.213 1.29733 228.709 1.008 228.13C0.728 227.542 0.588 226.907 0.588 226.226C0.588 225.545 0.728 224.924 1.008 224.364C1.29733 223.795 1.68933 223.309 2.184 222.908C2.688 222.497 3.28533 222.185 3.976 221.97C4.66667 221.746 5.418 221.634 6.23 221.634H12.796L10.934 224.07H6.23C5.838 224.07 5.474 224.126 5.138 224.238C4.802 224.35 4.51267 224.509 4.27 224.714C4.02733 224.91 3.836 225.148 3.696 225.428C3.556 225.708 3.486 226.016 3.486 226.352C3.486 226.688 3.55133 226.996 3.682 227.276C3.822 227.547 4.01333 227.78 4.256 227.976C4.508 228.172 4.802 228.326 5.138 228.438C5.474 228.541 5.838 228.592 6.23 228.592H12.796ZM24.6799 228.592L22.8179 231H13.8019V221.634H24.6519L22.7759 224.07H16.7139V225.19H24.1339L22.4679 227.318H16.7139V228.592H24.6799ZM35.8191 228.592L33.9431 231H25.6691V221.634H28.5671V228.592H35.8191ZM47.6623 228.592L45.8003 231H36.7843V221.634H47.6343L45.7583 224.07H39.6963V225.19H47.1163L45.4503 227.318H39.6963V228.592H47.6623ZM57.3315 225.372C58.4795 225.372 59.3522 225.587 59.9495 226.016C60.5469 226.436 60.8455 227.075 60.8455 227.934C60.8455 228.41 60.7709 228.839 60.6215 229.222C60.4722 229.605 60.2342 229.927 59.9075 230.188C59.5809 230.449 59.1609 230.65 58.6475 230.79C58.1435 230.93 57.5369 231 56.8275 231H48.1055L49.9675 228.592H57.0515C57.3969 228.592 57.6489 228.541 57.8075 228.438C57.9662 228.326 58.0455 228.149 58.0455 227.906C58.0455 227.663 57.9662 227.491 57.8075 227.388C57.6489 227.285 57.3969 227.234 57.0515 227.234H51.9555C51.3489 227.234 50.8262 227.169 50.3875 227.038C49.9489 226.907 49.5849 226.725 49.2955 226.492C49.0062 226.259 48.7915 225.979 48.6515 225.652C48.5115 225.316 48.4415 224.947 48.4415 224.546C48.4415 224.107 48.5162 223.711 48.6655 223.356C48.8242 222.992 49.0622 222.684 49.3795 222.432C49.7062 222.18 50.1215 221.984 50.6255 221.844C51.1389 221.704 51.7502 221.634 52.4595 221.634H60.5935L58.7315 224.07H52.2355C51.8995 224.07 51.6475 224.117 51.4795 224.21C51.3209 224.303 51.2415 224.471 51.2415 224.714C51.2415 224.957 51.3209 225.129 51.4795 225.232C51.6475 225.325 51.8995 225.372 52.2355 225.372H57.3315ZM72.932 221.634L71.056 224.07H67.71V231H64.812V224.07H60.416L62.292 221.634H72.932ZM76.7478 231H73.8498V221.634H76.7478V231ZM82.5139 231L84.2639 228.592H86.6159C86.8959 228.592 87.1853 228.592 87.4839 228.592C87.7919 228.592 88.0579 228.601 88.2819 228.62C88.1513 228.452 87.9973 228.242 87.8199 227.99C87.6519 227.729 87.4886 227.486 87.3299 227.262L85.6499 224.784L81.2539 231H77.8239L83.8299 222.53C84.0259 222.259 84.2733 222.017 84.5719 221.802C84.8706 221.587 85.2486 221.48 85.7059 221.48C86.1446 221.48 86.5086 221.583 86.7979 221.788C87.0966 221.984 87.3486 222.231 87.5539 222.53L93.4059 231H82.5139ZM104.589 228.592L102.713 231H94.4386V221.634H97.3366V228.592H104.589ZM122.827 228.592L120.965 231H116.261C115.449 231 114.698 230.879 114.007 230.636C113.317 230.393 112.719 230.062 112.215 229.642C111.721 229.213 111.329 228.709 111.039 228.13C110.759 227.542 110.619 226.907 110.619 226.226C110.619 225.545 110.759 224.924 111.039 224.364C111.329 223.795 111.721 223.309 112.215 222.908C112.719 222.497 113.317 222.185 114.007 221.97C114.698 221.746 115.449 221.634 116.261 221.634H122.827L120.965 224.07H116.261C115.869 224.07 115.505 224.126 115.169 224.238C114.833 224.35 114.544 224.509 114.301 224.714C114.059 224.91 113.867 225.148 113.727 225.428C113.587 225.708 113.517 226.016 113.517 226.352C113.517 226.688 113.583 226.996 113.713 227.276C113.853 227.547 114.045 227.78 114.287 227.976C114.539 228.172 114.833 228.326 115.169 228.438C115.505 228.541 115.869 228.592 116.261 228.592H122.827ZM130.385 221.48C132.663 221.48 134.371 221.867 135.509 222.642C136.657 223.417 137.231 224.639 137.231 226.31C137.231 227.99 136.662 229.217 135.523 229.992C134.385 230.767 132.672 231.154 130.385 231.154C128.089 231.154 126.372 230.767 125.233 229.992C124.104 229.217 123.539 227.99 123.539 226.31C123.539 224.639 124.109 223.417 125.247 222.642C126.386 221.867 128.099 221.48 130.385 221.48ZM130.385 228.718C131.113 228.718 131.729 228.69 132.233 228.634C132.737 228.569 133.143 228.447 133.451 228.27C133.769 228.093 133.997 227.85 134.137 227.542C134.277 227.225 134.347 226.814 134.347 226.31C134.347 225.806 134.277 225.4 134.137 225.092C133.997 224.775 133.769 224.532 133.451 224.364C133.143 224.187 132.737 224.07 132.233 224.014C131.729 223.949 131.113 223.916 130.385 223.916C129.657 223.916 129.041 223.949 128.537 224.014C128.033 224.07 127.623 224.187 127.305 224.364C126.997 224.532 126.773 224.775 126.633 225.092C126.493 225.4 126.423 225.806 126.423 226.31C126.423 226.814 126.493 227.225 126.633 227.542C126.773 227.85 126.997 228.093 127.305 228.27C127.623 228.447 128.033 228.569 128.537 228.634C129.041 228.69 129.657 228.718 130.385 228.718ZM145.247 221.48C147.524 221.48 149.232 221.867 150.371 222.642C151.519 223.417 152.093 224.639 152.093 226.31C152.093 227.99 151.523 229.217 150.385 229.992C149.246 230.767 147.533 231.154 145.247 231.154C142.951 231.154 141.233 230.767 140.095 229.992C138.965 229.217 138.401 227.99 138.401 226.31C138.401 224.639 138.97 223.417 140.109 222.642C141.247 221.867 142.96 221.48 145.247 221.48ZM145.247 228.718C145.975 228.718 146.591 228.69 147.095 228.634C147.599 228.569 148.005 228.447 148.313 228.27C148.63 228.093 148.859 227.85 148.999 227.542C149.139 227.225 149.209 226.814 149.209 226.31C149.209 225.806 149.139 225.4 148.999 225.092C148.859 224.775 148.63 224.532 148.313 224.364C148.005 224.187 147.599 224.07 147.095 224.014C146.591 223.949 145.975 223.916 145.247 223.916C144.519 223.916 143.903 223.949 143.399 224.014C142.895 224.07 142.484 224.187 142.167 224.364C141.859 224.532 141.635 224.775 141.495 225.092C141.355 225.4 141.285 225.806 141.285 226.31C141.285 226.814 141.355 227.225 141.495 227.542C141.635 227.85 141.859 228.093 142.167 228.27C142.484 228.447 142.895 228.569 143.399 228.634C143.903 228.69 144.519 228.718 145.247 228.718ZM166.842 231H162.964L160.878 228.522H156.426V231H153.528V226.212H161.676C162.124 226.212 162.502 226.119 162.81 225.932C163.118 225.745 163.272 225.489 163.272 225.162C163.272 224.798 163.132 224.527 162.852 224.35C162.572 224.163 162.18 224.07 161.676 224.07H153.528L155.418 221.634H161.438C161.97 221.634 162.52 221.685 163.09 221.788C163.659 221.881 164.177 222.054 164.644 222.306C165.11 222.558 165.493 222.899 165.792 223.328C166.1 223.757 166.254 224.308 166.254 224.98C166.254 225.344 166.198 225.689 166.086 226.016C165.974 226.343 165.81 226.637 165.596 226.898C165.39 227.159 165.134 227.383 164.826 227.57C164.527 227.747 164.186 227.873 163.804 227.948C163.962 228.069 164.14 228.223 164.336 228.41C164.532 228.597 164.793 228.853 165.12 229.18L166.842 231ZM179.798 226.226C179.798 226.907 179.653 227.542 179.364 228.13C179.084 228.709 178.692 229.213 178.188 229.642C177.693 230.062 177.101 230.393 176.41 230.636C175.719 230.879 174.968 231 174.156 231H167.884V225.162H170.796V228.592H174.156C174.557 228.592 174.926 228.541 175.262 228.438C175.607 228.326 175.901 228.172 176.144 227.976C176.387 227.78 176.578 227.547 176.718 227.276C176.858 226.996 176.928 226.688 176.928 226.352C176.928 226.025 176.858 225.722 176.718 225.442C176.578 225.162 176.382 224.924 176.13 224.728C175.878 224.523 175.584 224.364 175.248 224.252C174.912 224.131 174.548 224.07 174.156 224.07H167.884L169.732 221.634H174.156C174.977 221.634 175.733 221.746 176.424 221.97C177.115 222.194 177.707 222.511 178.202 222.922C178.706 223.323 179.098 223.809 179.378 224.378C179.658 224.938 179.798 225.554 179.798 226.226ZM184.209 231H181.311V221.634H184.209V231ZM195.505 231.154C195.318 231.154 195.132 231.121 194.945 231.056C194.768 231 194.567 230.865 194.343 230.65L188.603 225.498V231H185.971V223.23C185.971 222.922 186.013 222.656 186.097 222.432C186.19 222.208 186.307 222.026 186.447 221.886C186.596 221.746 186.764 221.643 186.951 221.578C187.147 221.513 187.348 221.48 187.553 221.48C187.73 221.48 187.908 221.513 188.085 221.578C188.272 221.634 188.482 221.769 188.715 221.984L194.455 227.136V221.634H197.101V229.39C197.101 229.698 197.054 229.964 196.961 230.188C196.877 230.412 196.76 230.599 196.611 230.748C196.471 230.888 196.303 230.991 196.107 231.056C195.911 231.121 195.71 231.154 195.505 231.154ZM202.772 231L204.522 228.592H206.874C207.154 228.592 207.443 228.592 207.742 228.592C208.05 228.592 208.316 228.601 208.54 228.62C208.409 228.452 208.255 228.242 208.078 227.99C207.91 227.729 207.746 227.486 207.588 227.262L205.908 224.784L201.512 231H198.082L204.088 222.53C204.284 222.259 204.531 222.017 204.83 221.802C205.128 221.587 205.506 221.48 205.964 221.48C206.402 221.48 206.766 221.583 207.056 221.788C207.354 221.984 207.606 222.231 207.812 222.53L213.664 231H202.772ZM226.33 221.634L224.454 224.07H221.108V231H218.21V224.07H213.814L215.69 221.634H226.33ZM238.084 228.592L236.222 231H227.206V221.634H238.056L236.18 224.07H230.118V225.19H237.538L235.872 227.318H230.118V228.592H238.084Z" fill="white"/>
<path d="M33.562 267.372C34.71 267.372 35.5827 267.587 36.18 268.016C36.7773 268.436 37.076 269.075 37.076 269.934C37.076 270.41 37.0013 270.839 36.852 271.222C36.7027 271.605 36.4647 271.927 36.138 272.188C35.8113 272.449 35.3913 272.65 34.878 272.79C34.374 272.93 33.7673 273 33.058 273H24.336L26.198 270.592H33.282C33.6273 270.592 33.8793 270.541 34.038 270.438C34.1967 270.326 34.276 270.149 34.276 269.906C34.276 269.663 34.1967 269.491 34.038 269.388C33.8793 269.285 33.6273 269.234 33.282 269.234H28.186C27.5793 269.234 27.0567 269.169 26.618 269.038C26.1793 268.907 25.8153 268.725 25.526 268.492C25.2367 268.259 25.022 267.979 24.882 267.652C24.742 267.316 24.672 266.947 24.672 266.546C24.672 266.107 24.7467 265.711 24.896 265.356C25.0547 264.992 25.2927 264.684 25.61 264.432C25.9367 264.18 26.352 263.984 26.856 263.844C27.3693 263.704 27.9807 263.634 28.69 263.634H36.824L34.962 266.07H28.466C28.13 266.07 27.878 266.117 27.71 266.21C27.5513 266.303 27.472 266.471 27.472 266.714C27.472 266.957 27.5513 267.129 27.71 267.232C27.878 267.325 28.13 267.372 28.466 267.372H33.562ZM49.1625 263.634L47.2865 266.07H43.9405V273H41.0425V266.07H36.6465L38.5225 263.634H49.1625ZM54.0003 273L55.7503 270.592H58.1023C58.3823 270.592 58.6716 270.592 58.9703 270.592C59.2783 270.592 59.5443 270.601 59.7683 270.62C59.6376 270.452 59.4836 270.242 59.3063 269.99C59.1383 269.729 58.9749 269.486 58.8163 269.262L57.1363 266.784L52.7403 273H49.3103L55.3163 264.53C55.5123 264.259 55.7596 264.017 56.0583 263.802C56.3569 263.587 56.7349 263.48 57.1923 263.48C57.6309 263.48 57.9949 263.583 58.2843 263.788C58.5829 263.984 58.8349 264.231 59.0403 264.53L64.8923 273H54.0003ZM79.211 273H75.333L73.247 270.522H68.795V273H65.897V268.212H74.045C74.493 268.212 74.871 268.119 75.179 267.932C75.487 267.745 75.641 267.489 75.641 267.162C75.641 266.798 75.501 266.527 75.221 266.35C74.941 266.163 74.549 266.07 74.045 266.07H65.897L67.787 263.634H73.807C74.339 263.634 74.8896 263.685 75.459 263.788C76.0283 263.881 76.5463 264.054 77.013 264.306C77.4796 264.558 77.8623 264.899 78.161 265.328C78.469 265.757 78.623 266.308 78.623 266.98C78.623 267.344 78.567 267.689 78.455 268.016C78.343 268.343 78.1796 268.637 77.965 268.898C77.7596 269.159 77.503 269.383 77.195 269.57C76.8963 269.747 76.5556 269.873 76.173 269.948C76.3316 270.069 76.509 270.223 76.705 270.41C76.901 270.597 77.1623 270.853 77.489 271.18L79.211 273ZM97.5265 270.592L95.6645 273H90.9605C90.1485 273 89.3971 272.879 88.7065 272.636C88.0158 272.393 87.4185 272.062 86.9145 271.642C86.4198 271.213 86.0278 270.709 85.7385 270.13C85.4585 269.542 85.3185 268.907 85.3185 268.226C85.3185 267.545 85.4585 266.924 85.7385 266.364C86.0278 265.795 86.4198 265.309 86.9145 264.908C87.4185 264.497 88.0158 264.185 88.7065 263.97C89.3971 263.746 90.1485 263.634 90.9605 263.634H97.5265L95.6645 266.07H90.9605C90.5685 266.07 90.2045 266.126 89.8685 266.238C89.5325 266.35 89.2431 266.509 89.0005 266.714C88.7578 266.91 88.5665 267.148 88.4265 267.428C88.2865 267.708 88.2165 268.016 88.2165 268.352C88.2165 268.688 88.2818 268.996 88.4125 269.276C88.5525 269.547 88.7438 269.78 88.9865 269.976C89.2385 270.172 89.5325 270.326 89.8685 270.438C90.2045 270.541 90.5685 270.592 90.9605 270.592H97.5265ZM102.494 273L104.244 270.592H106.596C106.876 270.592 107.166 270.592 107.464 270.592C107.772 270.592 108.038 270.601 108.262 270.62C108.132 270.452 107.978 270.242 107.8 269.99C107.632 269.729 107.469 269.486 107.31 269.262L105.63 266.784L101.234 273H97.8044L103.81 264.53C104.006 264.259 104.254 264.017 104.552 263.802C104.851 263.587 105.229 263.48 105.686 263.48C106.125 263.48 106.489 263.583 106.778 263.788C107.077 263.984 107.329 264.231 107.534 264.53L113.386 273H102.494ZM126.053 263.634L124.177 266.07H120.831V273H117.933V266.07H113.537L115.413 263.634H126.053ZM130.891 273L132.641 270.592H134.993C135.273 270.592 135.562 270.592 135.861 270.592C136.169 270.592 136.435 270.601 136.659 270.62C136.528 270.452 136.374 270.242 136.197 269.99C136.029 269.729 135.866 269.486 135.707 269.262L134.027 266.784L129.631 273H126.201L132.207 264.53C132.403 264.259 132.65 264.017 132.949 263.802C133.248 263.587 133.626 263.48 134.083 263.48C134.522 263.48 134.886 263.583 135.175 263.788C135.474 263.984 135.726 264.231 135.931 264.53L141.783 273H130.891ZM152.966 270.592L151.09 273H142.816V263.634H145.714V270.592H152.966ZM160.114 263.48C162.391 263.48 164.099 263.867 165.238 264.642C166.386 265.417 166.96 266.639 166.96 268.31C166.96 269.99 166.39 271.217 165.252 271.992C164.113 272.767 162.4 273.154 160.114 273.154C157.818 273.154 156.1 272.767 154.962 271.992C153.832 271.217 153.268 269.99 153.268 268.31C153.268 266.639 153.837 265.417 154.976 264.642C156.114 263.867 157.827 263.48 160.114 263.48ZM160.114 270.718C160.842 270.718 161.458 270.69 161.962 270.634C162.466 270.569 162.872 270.447 163.18 270.27C163.497 270.093 163.726 269.85 163.866 269.542C164.006 269.225 164.076 268.814 164.076 268.31C164.076 267.806 164.006 267.4 163.866 267.092C163.726 266.775 163.497 266.532 163.18 266.364C162.872 266.187 162.466 266.07 161.962 266.014C161.458 265.949 160.842 265.916 160.114 265.916C159.386 265.916 158.77 265.949 158.266 266.014C157.762 266.07 157.351 266.187 157.034 266.364C156.726 266.532 156.502 266.775 156.362 267.092C156.222 267.4 156.152 267.806 156.152 268.31C156.152 268.814 156.222 269.225 156.362 269.542C156.502 269.85 156.726 270.093 157.034 270.27C157.351 270.447 157.762 270.569 158.266 270.634C158.77 270.69 159.386 270.718 160.114 270.718ZM174.205 267.148H180.197V273H173.771C172.959 273 172.208 272.879 171.517 272.636C170.826 272.393 170.229 272.062 169.725 271.642C169.23 271.213 168.838 270.709 168.549 270.13C168.269 269.542 168.129 268.907 168.129 268.226C168.129 267.545 168.269 266.924 168.549 266.364C168.838 265.795 169.23 265.309 169.725 264.908C170.229 264.497 170.826 264.185 171.517 263.97C172.208 263.746 172.959 263.634 173.771 263.634H180.477L178.601 266.07H173.771C173.379 266.07 173.015 266.126 172.679 266.238C172.343 266.35 172.049 266.509 171.797 266.714C171.554 266.919 171.363 267.162 171.223 267.442C171.083 267.713 171.013 268.016 171.013 268.352C171.013 268.688 171.078 268.996 171.209 269.276C171.349 269.547 171.54 269.78 171.783 269.976C172.035 270.172 172.329 270.326 172.665 270.438C173.001 270.541 173.37 270.592 173.771 270.592H177.313V269.234H172.469L174.205 267.148ZM194.028 268.912C194.028 271.74 192.082 273.154 188.19 273.154C187.061 273.154 186.09 273.065 185.278 272.888C184.466 272.711 183.794 272.445 183.262 272.09C182.74 271.735 182.352 271.297 182.1 270.774C181.858 270.242 181.736 269.621 181.736 268.912V263.634H184.62V268.912C184.62 269.257 184.667 269.547 184.76 269.78C184.854 270.013 185.026 270.205 185.278 270.354C185.54 270.494 185.904 270.597 186.37 270.662C186.837 270.718 187.444 270.746 188.19 270.746C188.75 270.746 189.217 270.713 189.59 270.648C189.964 270.583 190.262 270.475 190.486 270.326C190.71 270.177 190.869 269.985 190.962 269.752C191.065 269.519 191.116 269.239 191.116 268.912V263.634H194.028V268.912ZM206.549 270.592L204.687 273H195.671V263.634H206.521L204.645 266.07H198.583V267.19H206.003L204.337 269.318H198.583V270.592H206.549ZM212.968 271.81C212.968 271.371 213.117 271.035 213.416 270.802C213.724 270.559 214.102 270.438 214.55 270.438C214.988 270.438 215.357 270.559 215.656 270.802C215.964 271.035 216.118 271.371 216.118 271.81C216.118 272.239 215.964 272.571 215.656 272.804C215.357 273.037 214.988 273.154 214.55 273.154C214.102 273.154 213.724 273.037 213.416 272.804C213.117 272.571 212.968 272.239 212.968 271.81ZM212.968 267.274C212.968 266.845 213.117 266.513 213.416 266.28C213.724 266.037 214.102 265.916 214.55 265.916C214.988 265.916 215.357 266.037 215.656 266.28C215.964 266.513 216.118 266.845 216.118 267.274C216.118 267.713 215.964 268.049 215.656 268.282C215.357 268.515 214.988 268.632 214.55 268.632C214.102 268.632 213.724 268.515 213.416 268.282C213.117 268.049 212.968 267.713 212.968 267.274Z" fill="#FF9C00"/>
<path d="M38.168 301H34.29L32.204 298.522H27.752V301H24.854V296.212H33.002C33.45 296.212 33.828 296.119 34.136 295.932C34.444 295.745 34.598 295.489 34.598 295.162C34.598 294.798 34.458 294.527 34.178 294.35C33.898 294.163 33.506 294.07 33.002 294.07H24.854L26.744 291.634H32.764C33.296 291.634 33.8467 291.685 34.416 291.788C34.9853 291.881 35.5033 292.054 35.97 292.306C36.4367 292.558 36.8193 292.899 37.118 293.328C37.426 293.757 37.58 294.308 37.58 294.98C37.58 295.344 37.524 295.689 37.412 296.016C37.3 296.343 37.1367 296.637 36.922 296.898C36.7167 297.159 36.46 297.383 36.152 297.57C35.8533 297.747 35.5127 297.873 35.13 297.948C35.2887 298.069 35.466 298.223 35.662 298.41C35.858 298.597 36.1193 298.853 36.446 299.18L38.168 301ZM42.1501 301H39.2521V291.634H42.1501V301ZM49.7363 295.148H55.7283V301H49.3023C48.4903 301 47.7389 300.879 47.0483 300.636C46.3576 300.393 45.7603 300.062 45.2563 299.642C44.7616 299.213 44.3696 298.709 44.0803 298.13C43.8003 297.542 43.6603 296.907 43.6603 296.226C43.6603 295.545 43.8003 294.924 44.0803 294.364C44.3696 293.795 44.7616 293.309 45.2563 292.908C45.7603 292.497 46.3576 292.185 47.0483 291.97C47.7389 291.746 48.4903 291.634 49.3023 291.634H56.0083L54.1323 294.07H49.3023C48.9103 294.07 48.5463 294.126 48.2103 294.238C47.8743 294.35 47.5803 294.509 47.3283 294.714C47.0856 294.919 46.8943 295.162 46.7543 295.442C46.6143 295.713 46.5443 296.016 46.5443 296.352C46.5443 296.688 46.6096 296.996 46.7403 297.276C46.8803 297.547 47.0716 297.78 47.3143 297.976C47.5663 298.172 47.8603 298.326 48.1963 298.438C48.5323 298.541 48.9009 298.592 49.3023 298.592H52.8443V297.234H48.0003L49.7363 295.148ZM68.7617 301H65.8777V297.388H60.3057V301H57.3937V291.634H60.3057V294.952H65.8777V291.634H68.7617V301ZM82.1801 291.634L80.3041 294.07H76.9581V301H74.0601V294.07H69.6641L71.5401 291.634H82.1801ZM92.3772 301L94.1272 298.592H96.4792C96.7592 298.592 97.0485 298.592 97.3472 298.592C97.6552 298.592 97.9212 298.601 98.1452 298.62C98.0145 298.452 97.8605 298.242 97.6832 297.99C97.5152 297.729 97.3519 297.486 97.1932 297.262L95.5132 294.784L91.1172 301H87.6872L93.6932 292.53C93.8892 292.259 94.1365 292.017 94.4352 291.802C94.7339 291.587 95.1119 291.48 95.5692 291.48C96.0079 291.48 96.3719 291.583 96.6612 291.788C96.9599 291.984 97.2119 292.231 97.4172 292.53L103.269 301H92.3772ZM112.982 295.372C114.13 295.372 115.003 295.587 115.6 296.016C116.197 296.436 116.496 297.075 116.496 297.934C116.496 298.41 116.421 298.839 116.272 299.222C116.123 299.605 115.885 299.927 115.558 300.188C115.231 300.449 114.811 300.65 114.298 300.79C113.794 300.93 113.187 301 112.478 301H103.756L105.618 298.592H112.702C113.047 298.592 113.299 298.541 113.458 298.438C113.617 298.326 113.696 298.149 113.696 297.906C113.696 297.663 113.617 297.491 113.458 297.388C113.299 297.285 113.047 297.234 112.702 297.234H107.606C106.999 297.234 106.477 297.169 106.038 297.038C105.599 296.907 105.235 296.725 104.946 296.492C104.657 296.259 104.442 295.979 104.302 295.652C104.162 295.316 104.092 294.947 104.092 294.546C104.092 294.107 104.167 293.711 104.316 293.356C104.475 292.992 104.713 292.684 105.03 292.432C105.357 292.18 105.772 291.984 106.276 291.844C106.789 291.704 107.401 291.634 108.11 291.634H116.244L114.382 294.07H107.886C107.55 294.07 107.298 294.117 107.13 294.21C106.971 294.303 106.892 294.471 106.892 294.714C106.892 294.957 106.971 295.129 107.13 295.232C107.298 295.325 107.55 295.372 107.886 295.372H112.982ZM129.696 298.592L127.834 301H123.13C122.318 301 121.567 300.879 120.876 300.636C120.186 300.393 119.588 300.062 119.084 299.642C118.59 299.213 118.198 298.709 117.908 298.13C117.628 297.542 117.488 296.907 117.488 296.226C117.488 295.545 117.628 294.924 117.908 294.364C118.198 293.795 118.59 293.309 119.084 292.908C119.588 292.497 120.186 292.185 120.876 291.97C121.567 291.746 122.318 291.634 123.13 291.634H129.696L127.834 294.07H123.13C122.738 294.07 122.374 294.126 122.038 294.238C121.702 294.35 121.413 294.509 121.17 294.714C120.928 294.91 120.736 295.148 120.596 295.428C120.456 295.708 120.386 296.016 120.386 296.352C120.386 296.688 120.452 296.996 120.582 297.276C120.722 297.547 120.914 297.78 121.156 297.976C121.408 298.172 121.702 298.326 122.038 298.438C122.374 298.541 122.738 298.592 123.13 298.592H129.696ZM141.58 298.592L139.718 301H130.702V291.634H141.552L139.676 294.07H133.614V295.19H141.034L139.368 297.318H133.614V298.592H141.58ZM152.062 301.154C151.875 301.154 151.688 301.121 151.502 301.056C151.324 301 151.124 300.865 150.9 300.65L145.16 295.498V301H142.528V293.23C142.528 292.922 142.57 292.656 142.654 292.432C142.747 292.208 142.864 292.026 143.004 291.886C143.153 291.746 143.321 291.643 143.508 291.578C143.704 291.513 143.904 291.48 144.11 291.48C144.287 291.48 144.464 291.513 144.642 291.578C144.828 291.634 145.038 291.769 145.272 291.984L151.012 297.136V291.634H153.658V299.39C153.658 299.698 153.611 299.964 153.518 300.188C153.434 300.412 153.317 300.599 153.168 300.748C153.028 300.888 152.86 300.991 152.664 301.056C152.468 301.121 152.267 301.154 152.062 301.154ZM164.046 295.372C165.194 295.372 166.067 295.587 166.664 296.016C167.262 296.436 167.56 297.075 167.56 297.934C167.56 298.41 167.486 298.839 167.336 299.222C167.187 299.605 166.949 299.927 166.622 300.188C166.296 300.449 165.876 300.65 165.362 300.79C164.858 300.93 164.252 301 163.542 301H154.82L156.682 298.592H163.766C164.112 298.592 164.364 298.541 164.522 298.438C164.681 298.326 164.76 298.149 164.76 297.906C164.76 297.663 164.681 297.491 164.522 297.388C164.364 297.285 164.112 297.234 163.766 297.234H158.67C158.064 297.234 157.541 297.169 157.102 297.038C156.664 296.907 156.3 296.725 156.01 296.492C155.721 296.259 155.506 295.979 155.366 295.652C155.226 295.316 155.156 294.947 155.156 294.546C155.156 294.107 155.231 293.711 155.38 293.356C155.539 292.992 155.777 292.684 156.094 292.432C156.421 292.18 156.836 291.984 157.34 291.844C157.854 291.704 158.465 291.634 159.174 291.634H167.308L165.446 294.07H158.95C158.614 294.07 158.362 294.117 158.194 294.21C158.036 294.303 157.956 294.471 157.956 294.714C157.956 294.957 158.036 295.129 158.194 295.232C158.362 295.325 158.614 295.372 158.95 295.372H164.046ZM171.787 301H168.889V291.634H171.787V301ZM180.143 291.48C182.42 291.48 184.128 291.867 185.267 292.642C186.415 293.417 186.989 294.639 186.989 296.31C186.989 297.99 186.42 299.217 185.281 299.992C184.142 300.767 182.43 301.154 180.143 301.154C177.847 301.154 176.13 300.767 174.991 299.992C173.862 299.217 173.297 297.99 173.297 296.31C173.297 294.639 173.866 293.417 175.005 292.642C176.144 291.867 177.856 291.48 180.143 291.48ZM180.143 298.718C180.871 298.718 181.487 298.69 181.991 298.634C182.495 298.569 182.901 298.447 183.209 298.27C183.526 298.093 183.755 297.85 183.895 297.542C184.035 297.225 184.105 296.814 184.105 296.31C184.105 295.806 184.035 295.4 183.895 295.092C183.755 294.775 183.526 294.532 183.209 294.364C182.901 294.187 182.495 294.07 181.991 294.014C181.487 293.949 180.871 293.916 180.143 293.916C179.415 293.916 178.799 293.949 178.295 294.014C177.791 294.07 177.38 294.187 177.063 294.364C176.755 294.532 176.531 294.775 176.391 295.092C176.251 295.4 176.181 295.806 176.181 296.31C176.181 296.814 176.251 297.225 176.391 297.542C176.531 297.85 176.755 298.093 177.063 298.27C177.38 298.447 177.791 298.569 178.295 298.634C178.799 298.69 179.415 298.718 180.143 298.718ZM197.944 301.154C197.758 301.154 197.571 301.121 197.384 301.056C197.207 301 197.006 300.865 196.782 300.65L191.042 295.498V301H188.41V293.23C188.41 292.922 188.452 292.656 188.536 292.432C188.63 292.208 188.746 292.026 188.886 291.886C189.036 291.746 189.204 291.643 189.39 291.578C189.586 291.513 189.787 291.48 189.992 291.48C190.17 291.48 190.347 291.513 190.524 291.578C190.711 291.634 190.921 291.769 191.154 291.984L196.894 297.136V291.634H199.54V299.39C199.54 299.698 199.494 299.964 199.4 300.188C199.316 300.412 199.2 300.599 199.05 300.748C198.91 300.888 198.742 300.991 198.546 301.056C198.35 301.121 198.15 301.154 197.944 301.154ZM206.679 299.81C206.679 299.371 206.828 299.035 207.127 298.802C207.435 298.559 207.813 298.438 208.261 298.438C208.699 298.438 209.068 298.559 209.367 298.802C209.675 299.035 209.829 299.371 209.829 299.81C209.829 300.239 209.675 300.571 209.367 300.804C209.068 301.037 208.699 301.154 208.261 301.154C207.813 301.154 207.435 301.037 207.127 300.804C206.828 300.571 206.679 300.239 206.679 299.81ZM206.679 295.274C206.679 294.845 206.828 294.513 207.127 294.28C207.435 294.037 207.813 293.916 208.261 293.916C208.699 293.916 209.068 294.037 209.367 294.28C209.675 294.513 209.829 294.845 209.829 295.274C209.829 295.713 209.675 296.049 209.367 296.282C209.068 296.515 208.699 296.632 208.261 296.632C207.813 296.632 207.435 296.515 207.127 296.282C206.828 296.049 206.679 295.713 206.679 295.274Z" fill="#FF9C00"/>
<path d="M28.844 329L30.594 326.592H32.946C33.226 326.592 33.5153 326.592 33.814 326.592C34.122 326.592 34.388 326.601 34.612 326.62C34.4813 326.452 34.3273 326.242 34.15 325.99C33.982 325.729 33.8187 325.486 33.66 325.262L31.98 322.784L27.584 329H24.154L30.16 320.53C30.356 320.259 30.6033 320.017 30.902 319.802C31.2007 319.587 31.5787 319.48 32.036 319.48C32.4747 319.48 32.8387 319.583 33.128 319.788C33.4267 319.984 33.6787 320.231 33.884 320.53L39.736 329H28.844ZM53.1307 323.148C53.1307 323.671 53.0281 324.147 52.8227 324.576C52.6174 324.996 52.3141 325.355 51.9127 325.654C51.5207 325.953 51.0401 326.186 50.4707 326.354C49.9014 326.522 49.2527 326.606 48.5247 326.606H43.6247V329H40.7407V324.212H48.8047C49.2527 324.212 49.5981 324.114 49.8407 323.918C50.0927 323.722 50.2187 323.461 50.2187 323.134C50.2187 322.807 50.0927 322.551 49.8407 322.364C49.5981 322.168 49.2527 322.07 48.8047 322.07H40.7407L42.6587 319.634H48.5387C49.2667 319.634 49.9154 319.723 50.4847 319.9C51.0541 320.068 51.5347 320.306 51.9267 320.614C52.3187 320.922 52.6174 321.291 52.8227 321.72C53.0281 322.149 53.1307 322.625 53.1307 323.148ZM66.9667 323.148C66.9667 323.671 66.864 324.147 66.6587 324.576C66.4533 324.996 66.15 325.355 65.7487 325.654C65.3567 325.953 64.876 326.186 64.3067 326.354C63.7373 326.522 63.0887 326.606 62.3607 326.606H57.4607V329H54.5767V324.212H62.6407C63.0887 324.212 63.434 324.114 63.6767 323.918C63.9287 323.722 64.0547 323.461 64.0547 323.134C64.0547 322.807 63.9287 322.551 63.6767 322.364C63.434 322.168 63.0887 322.07 62.6407 322.07H54.5767L56.4947 319.634H62.3747C63.1027 319.634 63.7513 319.723 64.3207 319.9C64.89 320.068 65.3707 320.306 65.7627 320.614C66.1547 320.922 66.4533 321.291 66.6587 321.72C66.864 322.149 66.9667 322.625 66.9667 323.148ZM72.4026 329L74.1526 326.592H76.5046C76.7846 326.592 77.0739 326.592 77.3726 326.592C77.6806 326.592 77.9466 326.601 78.1706 326.62C78.0399 326.452 77.8859 326.242 77.7086 325.99C77.5406 325.729 77.3773 325.486 77.2186 325.262L75.5386 322.784L71.1426 329H67.7126L73.7186 320.53C73.9146 320.259 74.1619 320.017 74.4606 319.802C74.7593 319.587 75.1373 319.48 75.5946 319.48C76.0333 319.48 76.3973 319.583 76.6866 319.788C76.9853 319.984 77.2373 320.231 77.4426 320.53L83.2946 329H72.4026ZM97.6133 329H93.7353L91.6493 326.522H87.1973V329H84.2993V324.212H92.4473C92.8953 324.212 93.2733 324.119 93.5813 323.932C93.8893 323.745 94.0433 323.489 94.0433 323.162C94.0433 322.798 93.9033 322.527 93.6233 322.35C93.3433 322.163 92.9513 322.07 92.4473 322.07H84.2993L86.1893 319.634H92.2093C92.7413 319.634 93.292 319.685 93.8613 319.788C94.4306 319.881 94.9486 320.054 95.4153 320.306C95.882 320.558 96.2646 320.899 96.5633 321.328C96.8713 321.757 97.0253 322.308 97.0253 322.98C97.0253 323.344 96.9693 323.689 96.8573 324.016C96.7453 324.343 96.582 324.637 96.3673 324.898C96.162 325.159 95.9053 325.383 95.5973 325.57C95.2986 325.747 94.958 325.873 94.5753 325.948C94.734 326.069 94.9113 326.223 95.1073 326.41C95.3033 326.597 95.5646 326.853 95.8913 327.18L97.6133 329ZM109.533 326.592L107.671 329H98.6554V319.634H109.505L107.629 322.07H101.567V323.19H108.987L107.321 325.318H101.567V326.592H109.533ZM120.015 329.154C119.828 329.154 119.641 329.121 119.455 329.056C119.277 329 119.077 328.865 118.853 328.65L113.113 323.498V329H110.481V321.23C110.481 320.922 110.523 320.656 110.607 320.432C110.7 320.208 110.817 320.026 110.957 319.886C111.106 319.746 111.274 319.643 111.461 319.578C111.657 319.513 111.857 319.48 112.063 319.48C112.24 319.48 112.417 319.513 112.595 319.578C112.781 319.634 112.991 319.769 113.225 319.984L118.965 325.136V319.634H121.611V327.39C121.611 327.698 121.564 327.964 121.471 328.188C121.387 328.412 121.27 328.599 121.121 328.748C120.981 328.888 120.813 328.991 120.617 329.056C120.421 329.121 120.22 329.154 120.015 329.154ZM134.954 319.634L133.078 322.07H129.732V329H126.834V322.07H122.438L124.314 319.634H134.954ZM147.657 323.12C147.862 323.484 148.039 323.806 148.189 324.086C148.347 324.357 148.483 324.599 148.595 324.814C148.716 325.029 148.819 325.225 148.903 325.402C148.996 325.579 149.085 325.752 149.169 325.92C149.243 325.752 149.323 325.584 149.407 325.416C149.5 325.239 149.603 325.043 149.715 324.828C149.836 324.604 149.971 324.357 150.121 324.086C150.279 323.815 150.461 323.498 150.667 323.134L152.165 320.474C152.333 320.175 152.543 319.937 152.795 319.76C153.056 319.573 153.378 319.48 153.761 319.48C154.125 319.48 154.451 319.587 154.741 319.802C155.039 320.007 155.254 320.329 155.385 320.768L157.751 329H154.867L153.985 325.738C153.835 325.206 153.709 324.739 153.607 324.338C153.504 323.937 153.415 323.545 153.341 323.162C153.182 323.489 153.005 323.853 152.809 324.254C152.613 324.646 152.356 325.145 152.039 325.752L150.779 328.104C150.657 328.337 150.531 328.524 150.401 328.664C150.279 328.795 150.153 328.897 150.023 328.972C149.892 329.047 149.752 329.093 149.603 329.112C149.453 329.14 149.29 329.154 149.113 329.154C148.935 329.154 148.772 329.14 148.623 329.112C148.473 329.093 148.333 329.047 148.203 328.972C148.072 328.897 147.941 328.795 147.811 328.664C147.689 328.524 147.568 328.337 147.447 328.104L146.187 325.738C146.019 325.421 145.869 325.136 145.739 324.884C145.608 324.632 145.487 324.408 145.375 324.212C145.272 324.007 145.179 323.82 145.095 323.652C145.02 323.484 144.945 323.321 144.871 323.162C144.796 323.535 144.707 323.927 144.605 324.338C144.502 324.739 144.381 325.206 144.241 325.738L143.359 329H140.517L142.939 320.768C143.069 320.329 143.284 320.007 143.583 319.802C143.881 319.587 144.213 319.48 144.577 319.48C144.95 319.48 145.263 319.569 145.515 319.746C145.776 319.923 145.991 320.166 146.159 320.474L147.657 323.12ZM162.774 329L164.524 326.592H166.876C167.156 326.592 167.445 326.592 167.744 326.592C168.052 326.592 168.318 326.601 168.542 326.62C168.411 326.452 168.257 326.242 168.08 325.99C167.912 325.729 167.748 325.486 167.59 325.262L165.91 322.784L161.514 329H158.084L164.09 320.53C164.286 320.259 164.533 320.017 164.832 319.802C165.13 319.587 165.508 319.48 165.966 319.48C166.404 319.48 166.768 319.583 167.058 319.788C167.356 319.984 167.608 320.231 167.814 320.53L173.666 329H162.774ZM180.48 323.148H186.472V329H180.046C179.234 329 178.483 328.879 177.792 328.636C177.102 328.393 176.504 328.062 176 327.642C175.506 327.213 175.114 326.709 174.824 326.13C174.544 325.542 174.404 324.907 174.404 324.226C174.404 323.545 174.544 322.924 174.824 322.364C175.114 321.795 175.506 321.309 176 320.908C176.504 320.497 177.102 320.185 177.792 319.97C178.483 319.746 179.234 319.634 180.046 319.634H186.752L184.876 322.07H180.046C179.654 322.07 179.29 322.126 178.954 322.238C178.618 322.35 178.324 322.509 178.072 322.714C177.83 322.919 177.638 323.162 177.498 323.442C177.358 323.713 177.288 324.016 177.288 324.352C177.288 324.688 177.354 324.996 177.484 325.276C177.624 325.547 177.816 325.78 178.058 325.976C178.31 326.172 178.604 326.326 178.94 326.438C179.276 326.541 179.645 326.592 180.046 326.592H183.588V325.234H178.744L180.48 323.148ZM197.63 329.154C197.443 329.154 197.257 329.121 197.07 329.056C196.893 329 196.692 328.865 196.468 328.65L190.728 323.498V329H188.096V321.23C188.096 320.922 188.138 320.656 188.222 320.432C188.315 320.208 188.432 320.026 188.572 319.886C188.721 319.746 188.889 319.643 189.076 319.578C189.272 319.513 189.473 319.48 189.678 319.48C189.855 319.48 190.033 319.513 190.21 319.578C190.397 319.634 190.607 319.769 190.84 319.984L196.58 325.136V319.634H199.226V327.39C199.226 327.698 199.179 327.964 199.086 328.188C199.002 328.412 198.885 328.599 198.736 328.748C198.596 328.888 198.428 328.991 198.232 329.056C198.036 329.121 197.835 329.154 197.63 329.154ZM203.875 329H200.977V319.634H203.875V329ZM217.313 319.634L215.437 322.07H212.091V329H209.193V322.07H204.797L206.673 319.634H217.313ZM230.355 324.912C230.355 327.74 228.409 329.154 224.517 329.154C223.387 329.154 222.417 329.065 221.605 328.888C220.793 328.711 220.121 328.445 219.589 328.09C219.066 327.735 218.679 327.297 218.427 326.774C218.184 326.242 218.063 325.621 218.063 324.912V319.634H220.947V324.912C220.947 325.257 220.993 325.547 221.087 325.78C221.18 326.013 221.353 326.205 221.605 326.354C221.866 326.494 222.23 326.597 222.697 326.662C223.163 326.718 223.77 326.746 224.517 326.746C225.077 326.746 225.543 326.713 225.917 326.648C226.29 326.583 226.589 326.475 226.813 326.326C227.037 326.177 227.195 325.985 227.289 325.752C227.391 325.519 227.443 325.239 227.443 324.912V319.634H230.355V324.912ZM243.911 324.226C243.911 324.907 243.767 325.542 243.477 326.13C243.197 326.709 242.805 327.213 242.301 327.642C241.807 328.062 241.214 328.393 240.523 328.636C239.833 328.879 239.081 329 238.269 329H231.997V323.162H234.909V326.592H238.269C238.671 326.592 239.039 326.541 239.375 326.438C239.721 326.326 240.015 326.172 240.257 325.976C240.5 325.78 240.691 325.547 240.831 325.276C240.971 324.996 241.041 324.688 241.041 324.352C241.041 324.025 240.971 323.722 240.831 323.442C240.691 323.162 240.495 322.924 240.243 322.728C239.991 322.523 239.697 322.364 239.361 322.252C239.025 322.131 238.661 322.07 238.269 322.07H231.997L233.845 319.634H238.269C239.091 319.634 239.847 319.746 240.537 319.97C241.228 320.194 241.821 320.511 242.315 320.922C242.819 321.323 243.211 321.809 243.491 322.378C243.771 322.938 243.911 323.554 243.911 324.226ZM256.26 326.592L254.398 329H245.382V319.634H256.232L254.356 322.07H248.294V323.19H255.714L254.048 325.318H248.294V326.592H256.26ZM257.319 327.81C257.319 327.371 257.469 327.035 257.767 326.802C258.075 326.559 258.453 326.438 258.901 326.438C259.34 326.438 259.709 326.559 260.007 326.802C260.315 327.035 260.469 327.371 260.469 327.81C260.469 328.239 260.315 328.571 260.007 328.804C259.709 329.037 259.34 329.154 258.901 329.154C258.453 329.154 258.075 329.037 257.767 328.804C257.469 328.571 257.319 328.239 257.319 327.81ZM257.319 323.274C257.319 322.845 257.469 322.513 257.767 322.28C258.075 322.037 258.453 321.916 258.901 321.916C259.34 321.916 259.709 322.037 260.007 322.28C260.315 322.513 260.469 322.845 260.469 323.274C260.469 323.713 260.315 324.049 260.007 324.282C259.709 324.515 259.34 324.632 258.901 324.632C258.453 324.632 258.075 324.515 257.767 324.282C257.469 324.049 257.319 323.713 257.319 323.274Z" fill="#FF9C00"/>
<path d="M36.796 354.592L34.934 357H30.23C29.418 357 28.6667 356.879 27.976 356.636C27.2853 356.393 26.688 356.062 26.184 355.642C25.6893 355.213 25.2973 354.709 25.008 354.13C24.728 353.542 24.588 352.907 24.588 352.226C24.588 351.545 24.728 350.924 25.008 350.364C25.2973 349.795 25.6893 349.309 26.184 348.908C26.688 348.497 27.2853 348.185 27.976 347.97C28.6667 347.746 29.418 347.634 30.23 347.634H36.796L34.934 350.07H30.23C29.838 350.07 29.474 350.126 29.138 350.238C28.802 350.35 28.5127 350.509 28.27 350.714C28.0273 350.91 27.836 351.148 27.696 351.428C27.556 351.708 27.486 352.016 27.486 352.352C27.486 352.688 27.5513 352.996 27.682 353.276C27.822 353.547 28.0133 353.78 28.256 353.976C28.508 354.172 28.802 354.326 29.138 354.438C29.474 354.541 29.838 354.592 30.23 354.592H36.796ZM44.3539 347.48C46.6313 347.48 48.3393 347.867 49.4779 348.642C50.6259 349.417 51.1999 350.639 51.1999 352.31C51.1999 353.99 50.6306 355.217 49.4919 355.992C48.3533 356.767 46.6406 357.154 44.3539 357.154C42.0579 357.154 40.3406 356.767 39.2019 355.992C38.0726 355.217 37.5079 353.99 37.5079 352.31C37.5079 350.639 38.0773 349.417 39.2159 348.642C40.3546 347.867 42.0673 347.48 44.3539 347.48ZM44.3539 354.718C45.0819 354.718 45.6979 354.69 46.2019 354.634C46.7059 354.569 47.1119 354.447 47.4199 354.27C47.7373 354.093 47.9659 353.85 48.1059 353.542C48.2459 353.225 48.3159 352.814 48.3159 352.31C48.3159 351.806 48.2459 351.4 48.1059 351.092C47.9659 350.775 47.7373 350.532 47.4199 350.364C47.1119 350.187 46.7059 350.07 46.2019 350.014C45.6979 349.949 45.0819 349.916 44.3539 349.916C43.6259 349.916 43.0099 349.949 42.5059 350.014C42.0019 350.07 41.5913 350.187 41.2739 350.364C40.9659 350.532 40.7419 350.775 40.6019 351.092C40.4619 351.4 40.3919 351.806 40.3919 352.31C40.3919 352.814 40.4619 353.225 40.6019 353.542C40.7419 353.85 40.9659 354.093 41.2739 354.27C41.5913 354.447 42.0019 354.569 42.5059 354.634C43.0099 354.69 43.6259 354.718 44.3539 354.718ZM62.1553 357.154C61.9686 357.154 61.7819 357.121 61.5953 357.056C61.4179 357 61.2173 356.865 60.9933 356.65L55.2533 351.498V357H52.6213V349.23C52.6213 348.922 52.6633 348.656 52.7473 348.432C52.8406 348.208 52.9573 348.026 53.0973 347.886C53.2466 347.746 53.4146 347.643 53.6013 347.578C53.7973 347.513 53.9979 347.48 54.2033 347.48C54.3806 347.48 54.5579 347.513 54.7353 347.578C54.9219 347.634 55.1319 347.769 55.3653 347.984L61.1053 353.136V347.634H63.7513V355.39C63.7513 355.698 63.7046 355.964 63.6113 356.188C63.5273 356.412 63.4106 356.599 63.2613 356.748C63.1213 356.888 62.9533 356.991 62.7573 357.056C62.5613 357.121 62.3606 357.154 62.1553 357.154ZM74.1401 351.372C75.2881 351.372 76.1608 351.587 76.7581 352.016C77.3555 352.436 77.6541 353.075 77.6541 353.934C77.6541 354.41 77.5795 354.839 77.4301 355.222C77.2808 355.605 77.0428 355.927 76.7161 356.188C76.3895 356.449 75.9695 356.65 75.4561 356.79C74.9521 356.93 74.3455 357 73.6361 357H64.9141L66.7761 354.592H73.8601C74.2055 354.592 74.4575 354.541 74.6161 354.438C74.7748 354.326 74.8541 354.149 74.8541 353.906C74.8541 353.663 74.7748 353.491 74.6161 353.388C74.4575 353.285 74.2055 353.234 73.8601 353.234H68.7641C68.1575 353.234 67.6348 353.169 67.1961 353.038C66.7575 352.907 66.3935 352.725 66.1041 352.492C65.8148 352.259 65.6001 351.979 65.4601 351.652C65.3201 351.316 65.2501 350.947 65.2501 350.546C65.2501 350.107 65.3248 349.711 65.4741 349.356C65.6328 348.992 65.8708 348.684 66.1881 348.432C66.5148 348.18 66.9301 347.984 67.4341 347.844C67.9475 347.704 68.5588 347.634 69.2681 347.634H77.4021L75.5401 350.07H69.0441C68.7081 350.07 68.4561 350.117 68.2881 350.21C68.1295 350.303 68.0501 350.471 68.0501 350.714C68.0501 350.957 68.1295 351.129 68.2881 351.232C68.4561 351.325 68.7081 351.372 69.0441 351.372H74.1401ZM89.7406 347.634L87.8646 350.07H84.5186V357H81.6206V350.07H77.2246L79.1006 347.634H89.7406ZM101.494 354.592L99.6324 357H90.6164V347.634H101.466L99.5904 350.07H93.5284V351.19H100.948L99.2824 353.318H93.5284V354.592H101.494ZM112.634 354.592L110.758 357H102.484V347.634H105.382V354.592H112.634ZM123.749 354.592L121.873 357H113.599V347.634H116.497V354.592H123.749ZM128.676 357L130.426 354.592H132.778C133.058 354.592 133.347 354.592 133.646 354.592C133.954 354.592 134.22 354.601 134.444 354.62C134.313 354.452 134.159 354.242 133.982 353.99C133.814 353.729 133.651 353.486 133.492 353.262L131.812 350.784L127.416 357H123.986L129.992 348.53C130.188 348.259 130.435 348.017 130.734 347.802C131.033 347.587 131.411 347.48 131.868 347.48C132.307 347.48 132.671 347.583 132.96 347.788C133.259 347.984 133.511 348.231 133.716 348.53L139.568 357H128.676ZM152.235 347.634L150.359 350.07H147.013V357H144.115V350.07H139.719L141.595 347.634H152.235ZM156.051 357H153.153V347.634H156.051V357ZM164.407 347.48C166.684 347.48 168.392 347.867 169.531 348.642C170.679 349.417 171.253 350.639 171.253 352.31C171.253 353.99 170.683 355.217 169.545 355.992C168.406 356.767 166.693 357.154 164.407 357.154C162.111 357.154 160.393 356.767 159.255 355.992C158.125 355.217 157.561 353.99 157.561 352.31C157.561 350.639 158.13 349.417 159.269 348.642C160.407 347.867 162.12 347.48 164.407 347.48ZM164.407 354.718C165.135 354.718 165.751 354.69 166.255 354.634C166.759 354.569 167.165 354.447 167.473 354.27C167.79 354.093 168.019 353.85 168.159 353.542C168.299 353.225 168.369 352.814 168.369 352.31C168.369 351.806 168.299 351.4 168.159 351.092C168.019 350.775 167.79 350.532 167.473 350.364C167.165 350.187 166.759 350.07 166.255 350.014C165.751 349.949 165.135 349.916 164.407 349.916C163.679 349.916 163.063 349.949 162.559 350.014C162.055 350.07 161.644 350.187 161.327 350.364C161.019 350.532 160.795 350.775 160.655 351.092C160.515 351.4 160.445 351.806 160.445 352.31C160.445 352.814 160.515 353.225 160.655 353.542C160.795 353.85 161.019 354.093 161.327 354.27C161.644 354.447 162.055 354.569 162.559 354.634C163.063 354.69 163.679 354.718 164.407 354.718ZM182.208 357.154C182.021 357.154 181.835 357.121 181.648 357.056C181.471 357 181.27 356.865 181.046 356.65L175.306 351.498V357H172.674V349.23C172.674 348.922 172.716 348.656 172.8 348.432C172.893 348.208 173.01 348.026 173.15 347.886C173.299 347.746 173.467 347.643 173.654 347.578C173.85 347.513 174.051 347.48 174.256 347.48C174.433 347.48 174.611 347.513 174.788 347.578C174.975 347.634 175.185 347.769 175.418 347.984L181.158 353.136V347.634H183.804V355.39C183.804 355.698 183.757 355.964 183.664 356.188C183.58 356.412 183.463 356.599 183.314 356.748C183.174 356.888 183.006 356.991 182.81 357.056C182.614 357.121 182.413 357.154 182.208 357.154ZM185.583 355.81C185.583 355.371 185.732 355.035 186.031 354.802C186.339 354.559 186.717 354.438 187.165 354.438C187.604 354.438 187.972 354.559 188.271 354.802C188.579 355.035 188.733 355.371 188.733 355.81C188.733 356.239 188.579 356.571 188.271 356.804C187.972 357.037 187.604 357.154 187.165 357.154C186.717 357.154 186.339 357.037 186.031 356.804C185.732 356.571 185.583 356.239 185.583 355.81ZM185.583 351.274C185.583 350.845 185.732 350.513 186.031 350.28C186.339 350.037 186.717 349.916 187.165 349.916C187.604 349.916 187.972 350.037 188.271 350.28C188.579 350.513 188.733 350.845 188.733 351.274C188.733 351.713 188.579 352.049 188.271 352.282C187.972 352.515 187.604 352.632 187.165 352.632C186.717 352.632 186.339 352.515 186.031 352.282C185.732 352.049 185.583 351.713 185.583 351.274Z" fill="#FF9C00"/>
<path d="M242.016 263.634L240.14 266.07H236.794V273H233.896V266.07H229.5L231.376 263.634H242.016ZM256.304 263.634L250.746 269.906V273H247.834V269.892L242.122 263.634H245.846L248.086 266.238C248.16 266.322 248.258 266.434 248.38 266.574C248.501 266.705 248.627 266.845 248.758 266.994C248.888 267.143 249.01 267.283 249.122 267.414C249.234 267.545 249.313 267.643 249.36 267.708C249.453 267.577 249.588 267.4 249.766 267.176C249.943 266.952 250.2 266.635 250.536 266.224L252.664 263.634H256.304ZM267.958 270.592L266.096 273H261.392C260.58 273 259.829 272.879 259.138 272.636C258.447 272.393 257.85 272.062 257.346 271.642C256.851 271.213 256.459 270.709 256.17 270.13C255.89 269.542 255.75 268.907 255.75 268.226C255.75 267.545 255.89 266.924 256.17 266.364C256.459 265.795 256.851 265.309 257.346 264.908C257.85 264.497 258.447 264.185 259.138 263.97C259.829 263.746 260.58 263.634 261.392 263.634H267.958L266.096 266.07H261.392C261 266.07 260.636 266.126 260.3 266.238C259.964 266.35 259.675 266.509 259.432 266.714C259.189 266.91 258.998 267.148 258.858 267.428C258.718 267.708 258.648 268.016 258.648 268.352C258.648 268.688 258.713 268.996 258.844 269.276C258.984 269.547 259.175 269.78 259.418 269.976C259.67 270.172 259.964 270.326 260.3 270.438C260.636 270.541 261 270.592 261.392 270.592H267.958ZM285.117 263.634L283.241 266.07H277.389V267.372H281.939C283.078 267.372 283.946 267.587 284.543 268.016C285.141 268.436 285.439 269.075 285.439 269.934C285.439 270.895 285.127 271.647 284.501 272.188C283.876 272.729 282.854 273 281.435 273H274.029L275.891 270.592H281.659C281.995 270.592 282.243 270.541 282.401 270.438C282.569 270.326 282.653 270.149 282.653 269.906C282.653 269.663 282.569 269.491 282.401 269.388C282.243 269.285 281.995 269.234 281.659 269.234H274.519V263.634H285.117ZM297.709 263.634L295.833 266.07H289.981V267.372H294.531C295.67 267.372 296.538 267.587 297.135 268.016C297.733 268.436 298.031 269.075 298.031 269.934C298.031 270.895 297.719 271.647 297.093 272.188C296.468 272.729 295.446 273 294.027 273H286.621L288.483 270.592H294.251C294.587 270.592 294.835 270.541 294.993 270.438C295.161 270.326 295.245 270.149 295.245 269.906C295.245 269.663 295.161 269.491 294.993 269.388C294.835 269.285 294.587 269.234 294.251 269.234H287.111V263.634H297.709ZM306.129 270.592C306.764 270.592 307.286 270.443 307.697 270.144C308.117 269.836 308.43 269.472 308.635 269.052C308.467 269.08 308.276 269.108 308.061 269.136C307.856 269.155 307.548 269.178 307.137 269.206C306.736 269.225 306.185 269.239 305.485 269.248C304.785 269.257 303.861 269.262 302.713 269.262C301.649 269.262 300.8 269.043 300.165 268.604C299.53 268.165 299.213 267.521 299.213 266.672C299.213 266.028 299.376 265.501 299.703 265.09C300.03 264.679 300.464 264.357 301.005 264.124C301.546 263.881 302.167 263.713 302.867 263.62C303.576 263.527 304.309 263.48 305.065 263.48C307.23 263.48 308.864 263.863 309.965 264.628C311.076 265.384 311.631 266.546 311.631 268.114C311.631 268.87 311.486 269.551 311.197 270.158C310.917 270.765 310.525 271.278 310.021 271.698C309.526 272.118 308.934 272.44 308.243 272.664C307.552 272.888 306.801 273 305.989 273H300.081L301.957 270.592H306.129ZM302.937 267.4C303.656 267.4 304.272 267.4 304.785 267.4C305.308 267.391 305.756 267.386 306.129 267.386C306.512 267.377 306.829 267.372 307.081 267.372C307.333 267.363 307.552 267.353 307.739 267.344C307.926 267.335 308.084 267.325 308.215 267.316C308.355 267.297 308.495 267.279 308.635 267.26C308.56 266.961 308.425 266.723 308.229 266.546C308.042 266.369 307.79 266.233 307.473 266.14C307.165 266.047 306.792 265.986 306.353 265.958C305.924 265.93 305.438 265.916 304.897 265.916C304.29 265.916 303.796 265.935 303.413 265.972C303.03 266.009 302.732 266.065 302.517 266.14C302.302 266.205 302.153 266.289 302.069 266.392C301.985 266.495 301.943 266.616 301.943 266.756C301.943 267.185 302.274 267.4 302.937 267.4ZM314.189 270.592H320.601C320.918 270.592 321.147 270.536 321.287 270.424C321.427 270.312 321.497 270.149 321.497 269.934C321.497 269.729 321.427 269.575 321.287 269.472C321.147 269.36 320.918 269.304 320.601 269.304H314.987L316.485 267.302H320.643C320.858 267.302 321.044 267.26 321.203 267.176C321.371 267.083 321.455 266.915 321.455 266.672C321.455 266.439 321.371 266.28 321.203 266.196C321.035 266.112 320.848 266.07 320.643 266.07H312.803L314.665 263.634H320.517C321.077 263.634 321.581 263.69 322.029 263.802C322.486 263.905 322.874 264.068 323.191 264.292C323.518 264.507 323.765 264.777 323.933 265.104C324.11 265.421 324.199 265.795 324.199 266.224C324.199 266.504 324.162 266.751 324.087 266.966C324.012 267.181 323.914 267.372 323.793 267.54C323.681 267.699 323.546 267.834 323.387 267.946C323.238 268.049 323.084 268.128 322.925 268.184C323.336 268.305 323.681 268.543 323.961 268.898C324.25 269.253 324.395 269.71 324.395 270.27C324.395 270.662 324.334 271.026 324.213 271.362C324.092 271.689 323.886 271.973 323.597 272.216C323.308 272.459 322.916 272.65 322.421 272.79C321.936 272.93 321.324 273 320.587 273H312.341L314.189 270.592ZM331.271 267.358L329.857 269.164H325.181L326.595 267.358H331.271ZM338.969 270.592C339.604 270.592 340.126 270.443 340.537 270.144C340.957 269.836 341.27 269.472 341.475 269.052C341.307 269.08 341.116 269.108 340.901 269.136C340.696 269.155 340.388 269.178 339.977 269.206C339.576 269.225 339.025 269.239 338.325 269.248C337.625 269.257 336.701 269.262 335.553 269.262C334.489 269.262 333.64 269.043 333.005 268.604C332.37 268.165 332.053 267.521 332.053 266.672C332.053 266.028 332.216 265.501 332.543 265.09C332.87 264.679 333.304 264.357 333.845 264.124C334.386 263.881 335.007 263.713 335.707 263.62C336.416 263.527 337.149 263.48 337.905 263.48C340.07 263.48 341.704 263.863 342.805 264.628C343.916 265.384 344.471 266.546 344.471 268.114C344.471 268.87 344.326 269.551 344.037 270.158C343.757 270.765 343.365 271.278 342.861 271.698C342.366 272.118 341.774 272.44 341.083 272.664C340.392 272.888 339.641 273 338.829 273H332.921L334.797 270.592H338.969ZM335.777 267.4C336.496 267.4 337.112 267.4 337.625 267.4C338.148 267.391 338.596 267.386 338.969 267.386C339.352 267.377 339.669 267.372 339.921 267.372C340.173 267.363 340.392 267.353 340.579 267.344C340.766 267.335 340.924 267.325 341.055 267.316C341.195 267.297 341.335 267.279 341.475 267.26C341.4 266.961 341.265 266.723 341.069 266.546C340.882 266.369 340.63 266.233 340.313 266.14C340.005 266.047 339.632 265.986 339.193 265.958C338.764 265.93 338.278 265.916 337.737 265.916C337.13 265.916 336.636 265.935 336.253 265.972C335.87 266.009 335.572 266.065 335.357 266.14C335.142 266.205 334.993 266.289 334.909 266.392C334.825 266.495 334.783 266.616 334.783 266.756C334.783 267.185 335.114 267.4 335.777 267.4ZM351.145 266.07C350.566 266.07 350.057 266.187 349.619 266.42C349.18 266.653 348.853 266.971 348.639 267.372H354.561C355.625 267.372 356.474 267.591 357.109 268.03C357.743 268.469 358.061 269.113 358.061 269.962C358.061 270.606 357.897 271.138 357.571 271.558C357.244 271.969 356.81 272.295 356.269 272.538C355.727 272.771 355.102 272.93 354.393 273.014C353.693 273.107 352.965 273.154 352.209 273.154C350.053 273.154 348.419 272.762 347.309 271.978C346.198 271.185 345.643 269.934 345.643 268.226C345.643 267.545 345.783 266.924 346.063 266.364C346.352 265.795 346.744 265.309 347.239 264.908C347.743 264.497 348.34 264.185 349.031 263.97C349.721 263.746 350.473 263.634 351.285 263.634H357.319L355.457 266.07H351.145ZM348.639 269.234C348.723 269.542 348.863 269.794 349.059 269.99C349.255 270.186 349.507 270.34 349.815 270.452C350.123 270.555 350.487 270.625 350.907 270.662C351.336 270.699 351.826 270.718 352.377 270.718C352.974 270.718 353.464 270.699 353.847 270.662C354.239 270.625 354.542 270.573 354.757 270.508C354.971 270.433 355.121 270.345 355.205 270.242C355.289 270.13 355.331 270.009 355.331 269.878C355.331 269.449 354.999 269.234 354.337 269.234H348.639ZM370.321 263.634L368.445 266.07H362.593V267.372H367.143C368.281 267.372 369.149 267.587 369.747 268.016C370.344 268.436 370.643 269.075 370.643 269.934C370.643 270.895 370.33 271.647 369.705 272.188C369.079 272.729 368.057 273 366.639 273H359.233L361.095 270.592H366.863C367.199 270.592 367.446 270.541 367.605 270.438C367.773 270.326 367.857 270.149 367.857 269.906C367.857 269.663 367.773 269.491 367.605 269.388C367.446 269.285 367.199 269.234 366.863 269.234H359.723V263.634H370.321ZM377.536 267.358L376.122 269.164H371.446L372.86 267.358H377.536ZM379.648 263.634H383.078V273H380.18V266.07H377.898L379.648 263.634Z" fill="white"/>
<path d="M278.918 319.634H282.348V329H279.45V322.07H277.168L278.918 319.634ZM289.814 319.48C291.802 319.48 293.295 319.867 294.294 320.642C295.293 321.417 295.792 322.639 295.792 324.31C295.792 325.99 295.293 327.217 294.294 327.992C293.305 328.767 291.811 329.154 289.814 329.154C287.817 329.154 286.319 328.767 285.32 327.992C284.331 327.217 283.836 325.99 283.836 324.31C283.836 322.639 284.335 321.417 285.334 320.642C286.333 319.867 287.826 319.48 289.814 319.48ZM289.814 326.718C290.383 326.718 290.869 326.69 291.27 326.634C291.671 326.569 291.993 326.447 292.236 326.27C292.479 326.093 292.656 325.85 292.768 325.542C292.88 325.225 292.936 324.814 292.936 324.31C292.936 323.806 292.88 323.4 292.768 323.092C292.656 322.775 292.479 322.532 292.236 322.364C291.993 322.187 291.671 322.07 291.27 322.014C290.869 321.949 290.383 321.916 289.814 321.916C289.235 321.916 288.745 321.949 288.344 322.014C287.952 322.07 287.635 322.187 287.392 322.364C287.149 322.532 286.972 322.775 286.86 323.092C286.748 323.4 286.692 323.806 286.692 324.31C286.692 324.814 286.748 325.225 286.86 325.542C286.972 325.85 287.149 326.093 287.392 326.27C287.635 326.447 287.952 326.569 288.344 326.634C288.745 326.69 289.235 326.718 289.814 326.718ZM296.455 327.81C296.455 327.371 296.605 327.035 296.903 326.802C297.211 326.559 297.585 326.438 298.023 326.438C298.471 326.438 298.845 326.559 299.143 326.802C299.451 327.035 299.605 327.371 299.605 327.81C299.605 328.239 299.451 328.571 299.143 328.804C298.845 329.037 298.471 329.154 298.023 329.154C297.585 329.154 297.211 329.037 296.903 328.804C296.605 328.571 296.455 328.239 296.455 327.81ZM311.864 319.634L309.988 322.07H304.136V323.372H308.686C309.824 323.372 310.692 323.587 311.29 324.016C311.887 324.436 312.186 325.075 312.186 325.934C312.186 326.895 311.873 327.647 311.248 328.188C310.622 328.729 309.6 329 308.182 329H300.776L302.638 326.592H308.406C308.742 326.592 308.989 326.541 309.148 326.438C309.316 326.326 309.4 326.149 309.4 325.906C309.4 325.663 309.316 325.491 309.148 325.388C308.989 325.285 308.742 325.234 308.406 325.234H301.266V319.634H311.864Z" fill="white"/>
<path d="M224.418 291.634H227.848V301H224.95V294.07H222.668L224.418 291.634ZM240.424 291.634L238.548 294.07H232.696V295.372H237.246C238.385 295.372 239.253 295.587 239.85 296.016C240.447 296.436 240.746 297.075 240.746 297.934C240.746 298.895 240.433 299.647 239.808 300.188C239.183 300.729 238.161 301 236.742 301H229.336L231.198 298.592H236.966C237.302 298.592 237.549 298.541 237.708 298.438C237.876 298.326 237.96 298.149 237.96 297.906C237.96 297.663 237.876 297.491 237.708 297.388C237.549 297.285 237.302 297.234 236.966 297.234H229.826V291.634H240.424ZM253.59 301H250.706V297.388H245.134V301H242.222V291.634H245.134V294.952H250.706V291.634H253.59V301ZM261.77 291.634H265.2V301H262.302V294.07H260.02L261.77 291.634ZM272.19 294.07C271.611 294.07 271.102 294.187 270.664 294.42C270.225 294.653 269.898 294.971 269.684 295.372H275.606C276.67 295.372 277.519 295.591 278.154 296.03C278.788 296.469 279.106 297.113 279.106 297.962C279.106 298.606 278.942 299.138 278.616 299.558C278.289 299.969 277.855 300.295 277.314 300.538C276.772 300.771 276.147 300.93 275.438 301.014C274.738 301.107 274.01 301.154 273.254 301.154C271.098 301.154 269.464 300.762 268.354 299.978C267.243 299.185 266.688 297.934 266.688 296.226C266.688 295.545 266.828 294.924 267.108 294.364C267.397 293.795 267.789 293.309 268.284 292.908C268.788 292.497 269.385 292.185 270.076 291.97C270.766 291.746 271.518 291.634 272.33 291.634H278.364L276.502 294.07H272.19ZM269.684 297.234C269.768 297.542 269.908 297.794 270.104 297.99C270.3 298.186 270.552 298.34 270.86 298.452C271.168 298.555 271.532 298.625 271.952 298.662C272.381 298.699 272.871 298.718 273.422 298.718C274.019 298.718 274.509 298.699 274.892 298.662C275.284 298.625 275.587 298.573 275.802 298.508C276.016 298.433 276.166 298.345 276.25 298.242C276.334 298.13 276.376 298.009 276.376 297.878C276.376 297.449 276.044 297.234 275.382 297.234H269.684ZM287.039 295.12C287.245 295.484 287.422 295.806 287.571 296.086C287.73 296.357 287.865 296.599 287.977 296.814C288.099 297.029 288.201 297.225 288.285 297.402C288.379 297.579 288.467 297.752 288.551 297.92C288.626 297.752 288.705 297.584 288.789 297.416C288.883 297.239 288.985 297.043 289.097 296.828C289.219 296.604 289.354 296.357 289.503 296.086C289.662 295.815 289.844 295.498 290.049 295.134L291.547 292.474C291.715 292.175 291.925 291.937 292.177 291.76C292.439 291.573 292.761 291.48 293.143 291.48C293.507 291.48 293.834 291.587 294.123 291.802C294.422 292.007 294.637 292.329 294.767 292.768L297.133 301H294.249L293.367 297.738C293.218 297.206 293.092 296.739 292.989 296.338C292.887 295.937 292.798 295.545 292.723 295.162C292.565 295.489 292.387 295.853 292.191 296.254C291.995 296.646 291.739 297.145 291.421 297.752L290.161 300.104C290.04 300.337 289.914 300.524 289.783 300.664C289.662 300.795 289.536 300.897 289.405 300.972C289.275 301.047 289.135 301.093 288.985 301.112C288.836 301.14 288.673 301.154 288.495 301.154C288.318 301.154 288.155 301.14 288.005 301.112C287.856 301.093 287.716 301.047 287.585 300.972C287.455 300.897 287.324 300.795 287.193 300.664C287.072 300.524 286.951 300.337 286.829 300.104L285.569 297.738C285.401 297.421 285.252 297.136 285.121 296.884C284.991 296.632 284.869 296.408 284.757 296.212C284.655 296.007 284.561 295.82 284.477 295.652C284.403 295.484 284.328 295.321 284.253 295.162C284.179 295.535 284.09 295.927 283.987 296.338C283.885 296.739 283.763 297.206 283.623 297.738L282.741 301H279.899L282.321 292.768C282.452 292.329 282.667 292.007 282.965 291.802C283.264 291.587 283.595 291.48 283.959 291.48C284.333 291.48 284.645 291.569 284.897 291.746C285.159 291.923 285.373 292.166 285.541 292.474L287.039 295.12ZM304.478 299.88C304.263 299.88 304.067 299.847 303.89 299.782C303.722 299.707 303.577 299.614 303.456 299.502C303.335 299.381 303.241 299.245 303.176 299.096C303.111 298.947 303.078 298.788 303.078 298.62C303.078 298.424 303.125 298.228 303.218 298.032C303.311 297.836 303.465 297.649 303.68 297.472L310.442 291.984C310.675 291.797 310.909 291.667 311.142 291.592C311.385 291.517 311.59 291.48 311.758 291.48C311.963 291.48 312.164 291.513 312.36 291.578C312.556 291.643 312.724 291.746 312.864 291.886C313.013 292.026 313.13 292.208 313.214 292.432C313.307 292.656 313.354 292.922 313.354 293.23V297.584H316.028L314.334 299.88H313.354V301H310.582V299.88H304.478ZM310.582 296.184C310.582 295.904 310.587 295.671 310.596 295.484C310.605 295.297 310.619 295.125 310.638 294.966C310.414 295.19 310.073 295.489 309.616 295.862L308.58 296.688C308.319 296.903 308.085 297.089 307.88 297.248C307.684 297.397 307.497 297.528 307.32 297.64C307.516 297.621 307.745 297.607 308.006 297.598C308.267 297.589 308.571 297.584 308.916 297.584H310.582V296.184ZM317.917 299.88C317.703 299.88 317.507 299.847 317.329 299.782C317.161 299.707 317.017 299.614 316.895 299.502C316.774 299.381 316.681 299.245 316.615 299.096C316.55 298.947 316.517 298.788 316.517 298.62C316.517 298.424 316.564 298.228 316.657 298.032C316.751 297.836 316.905 297.649 317.119 297.472L323.881 291.984C324.115 291.797 324.348 291.667 324.581 291.592C324.824 291.517 325.029 291.48 325.197 291.48C325.403 291.48 325.603 291.513 325.799 291.578C325.995 291.643 326.163 291.746 326.303 291.886C326.453 292.026 326.569 292.208 326.653 292.432C326.747 292.656 326.793 292.922 326.793 293.23V297.584H329.467L327.773 299.88H326.793V301H324.021V299.88H317.917ZM324.021 296.184C324.021 295.904 324.026 295.671 324.035 295.484C324.045 295.297 324.059 295.125 324.077 294.966C323.853 295.19 323.513 295.489 323.055 295.862L322.019 296.688C321.758 296.903 321.525 297.089 321.319 297.248C321.123 297.397 320.937 297.528 320.759 297.64C320.955 297.621 321.184 297.607 321.445 297.598C321.707 297.589 322.01 297.584 322.355 297.584H324.021V296.184ZM339.113 295.372C340.261 295.372 341.133 295.587 341.731 296.016C342.328 296.436 342.627 297.075 342.627 297.934C342.627 298.41 342.552 298.839 342.403 299.222C342.253 299.605 342.015 299.927 341.689 300.188C341.362 300.449 340.942 300.65 340.429 300.79C339.925 300.93 339.318 301 338.609 301H329.887L331.749 298.592H338.833C339.178 298.592 339.43 298.541 339.589 298.438C339.747 298.326 339.827 298.149 339.827 297.906C339.827 297.663 339.747 297.491 339.589 297.388C339.43 297.285 339.178 297.234 338.833 297.234H333.737C333.13 297.234 332.607 297.169 332.169 297.038C331.73 296.907 331.366 296.725 331.077 296.492C330.787 296.259 330.573 295.979 330.433 295.652C330.293 295.316 330.223 294.947 330.223 294.546C330.223 294.107 330.297 293.711 330.447 293.356C330.605 292.992 330.843 292.684 331.161 292.432C331.487 292.18 331.903 291.984 332.407 291.844C332.92 291.704 333.531 291.634 334.241 291.634H342.375L340.513 294.07H334.017C333.681 294.07 333.429 294.117 333.261 294.21C333.102 294.303 333.023 294.471 333.023 294.714C333.023 294.957 333.102 295.129 333.261 295.232C333.429 295.325 333.681 295.372 334.017 295.372H339.113Z" fill="white"/>
<path d="M212.032 354.592L210.156 357H201.882V347.634H204.78V354.592H212.032ZM215.937 357H213.039V347.634H215.937V357ZM228.311 352.184C228.722 352.305 229.067 352.543 229.347 352.898C229.637 353.253 229.781 353.71 229.781 354.27C229.781 354.662 229.721 355.026 229.599 355.362C229.478 355.689 229.273 355.973 228.983 356.216C228.694 356.459 228.302 356.65 227.807 356.79C227.322 356.93 226.711 357 225.973 357H217.741V351.302H226.029C226.244 351.302 226.431 351.26 226.589 351.176C226.757 351.083 226.841 350.915 226.841 350.672C226.841 350.439 226.757 350.28 226.589 350.196C226.421 350.112 226.235 350.07 226.029 350.07H217.741L219.701 347.634H225.903C226.463 347.634 226.967 347.69 227.415 347.802C227.873 347.905 228.26 348.068 228.577 348.292C228.904 348.507 229.151 348.777 229.319 349.104C229.497 349.421 229.585 349.795 229.585 350.224C229.585 350.504 229.548 350.751 229.473 350.966C229.399 351.181 229.301 351.372 229.179 351.54C229.067 351.699 228.932 351.834 228.773 351.946C228.624 352.049 228.47 352.128 228.311 352.184ZM220.653 353.304V354.592H225.987C226.305 354.592 226.533 354.536 226.673 354.424C226.813 354.312 226.883 354.149 226.883 353.934C226.883 353.729 226.813 353.575 226.673 353.472C226.533 353.36 226.305 353.304 225.987 353.304H220.653ZM244.522 357H240.644L238.558 354.522H234.106V357H231.208V352.212H239.356C239.804 352.212 240.182 352.119 240.49 351.932C240.798 351.745 240.952 351.489 240.952 351.162C240.952 350.798 240.812 350.527 240.532 350.35C240.252 350.163 239.86 350.07 239.356 350.07H231.208L233.098 347.634H239.118C239.65 347.634 240.2 347.685 240.77 347.788C241.339 347.881 241.857 348.054 242.324 348.306C242.79 348.558 243.173 348.899 243.472 349.328C243.78 349.757 243.934 350.308 243.934 350.98C243.934 351.344 243.878 351.689 243.766 352.016C243.654 352.343 243.49 352.637 243.276 352.898C243.07 353.159 242.814 353.383 242.506 353.57C242.207 353.747 241.866 353.873 241.484 353.948C241.642 354.069 241.82 354.223 242.016 354.41C242.212 354.597 242.473 354.853 242.8 355.18L244.522 357ZM249.526 357L251.276 354.592H253.628C253.908 354.592 254.197 354.592 254.496 354.592C254.804 354.592 255.07 354.601 255.294 354.62C255.163 354.452 255.009 354.242 254.832 353.99C254.664 353.729 254.5 353.486 254.342 353.262L252.662 350.784L248.266 357H244.836L250.842 348.53C251.038 348.259 251.285 348.017 251.584 347.802C251.882 347.587 252.26 347.48 252.718 347.48C253.156 347.48 253.52 347.583 253.81 347.788C254.108 347.984 254.36 348.231 254.566 348.53L260.418 357H249.526Z" fill="white"/>
<path d="M176.8 379.358L175.386 381.164H170.71L172.124 379.358H176.8ZM178.912 375.634H182.342V385H179.444V378.07H177.162L178.912 375.634ZM185.048 383.88C184.834 383.88 184.638 383.847 184.46 383.782C184.292 383.707 184.148 383.614 184.026 383.502C183.905 383.381 183.812 383.245 183.746 383.096C183.681 382.947 183.648 382.788 183.648 382.62C183.648 382.424 183.695 382.228 183.788 382.032C183.882 381.836 184.036 381.649 184.25 381.472L191.012 375.984C191.246 375.797 191.479 375.667 191.712 375.592C191.955 375.517 192.16 375.48 192.328 375.48C192.534 375.48 192.734 375.513 192.93 375.578C193.126 375.643 193.294 375.746 193.434 375.886C193.584 376.026 193.7 376.208 193.784 376.432C193.878 376.656 193.924 376.922 193.924 377.23V381.584H196.598L194.904 383.88H193.924V385H191.152V383.88H185.048ZM191.152 380.184C191.152 379.904 191.157 379.671 191.166 379.484C191.176 379.297 191.19 379.125 191.208 378.966C190.984 379.19 190.644 379.489 190.186 379.862L189.15 380.688C188.889 380.903 188.656 381.089 188.45 381.248C188.254 381.397 188.068 381.528 187.89 381.64C188.086 381.621 188.315 381.607 188.576 381.598C188.838 381.589 189.141 381.584 189.486 381.584H191.152V380.184ZM199.482 376.614C198.81 376.614 198.474 376.95 198.474 377.622C198.474 378.294 198.81 378.63 199.482 378.63C200.163 378.63 200.504 378.303 200.504 377.65C200.504 376.959 200.163 376.614 199.482 376.614ZM199.482 375.48C200.91 375.48 201.624 376.194 201.624 377.622C201.624 379.05 200.91 379.764 199.482 379.764C198.054 379.764 197.34 379.05 197.34 377.622C197.34 376.194 198.054 375.48 199.482 375.48ZM219.24 375.634L217.364 378.07H211.512V379.372H216.062C217.201 379.372 218.069 379.587 218.666 380.016C219.264 380.436 219.562 381.075 219.562 381.934C219.562 382.895 219.25 383.647 218.624 384.188C217.999 384.729 216.977 385 215.558 385H208.152L210.014 382.592H215.782C216.118 382.592 216.366 382.541 216.524 382.438C216.692 382.326 216.776 382.149 216.776 381.906C216.776 381.663 216.692 381.491 216.524 381.388C216.366 381.285 216.118 381.234 215.782 381.234H208.642V375.634H219.24ZM222.984 375.634L222.13 379.386H221.248L220.394 375.634H222.984ZM231.504 375.634H236.992C237.701 375.634 238.308 375.704 238.812 375.844C239.325 375.984 239.741 376.18 240.058 376.432C240.385 376.684 240.623 376.992 240.772 377.356C240.931 377.711 241.01 378.107 241.01 378.546C241.01 378.947 240.94 379.316 240.8 379.652C240.66 379.979 240.445 380.259 240.156 380.492C239.867 380.725 239.498 380.907 239.05 381.038C238.611 381.169 238.093 381.234 237.496 381.234H233.044C232.708 381.234 232.456 381.285 232.288 381.388C232.129 381.491 232.05 381.663 232.05 381.906V382.592H241.08L239.218 385H229.25V381.934C229.25 381.075 229.549 380.436 230.146 380.016C230.743 379.587 231.616 379.372 232.764 379.372H237.216C237.552 379.372 237.799 379.325 237.958 379.232C238.126 379.129 238.21 378.957 238.21 378.714C238.21 378.471 238.126 378.303 237.958 378.21C237.799 378.117 237.552 378.07 237.216 378.07H229.642L231.504 375.634ZM246.898 385H243.244L247.836 379.834C248.079 379.563 248.284 379.33 248.452 379.134C248.629 378.938 248.783 378.77 248.914 378.63C249.054 378.49 249.171 378.373 249.264 378.28C249.367 378.177 249.465 378.084 249.558 378C249.427 378.009 249.283 378.019 249.124 378.028C248.975 378.037 248.797 378.047 248.592 378.056C248.387 378.056 248.144 378.061 247.864 378.07C247.593 378.07 247.276 378.07 246.912 378.07H241.83L243.678 375.634H251.77C252.302 375.634 252.699 375.76 252.96 376.012C253.231 376.255 253.366 376.544 253.366 376.88C253.366 377.048 253.329 377.221 253.254 377.398C253.189 377.575 253.072 377.762 252.904 377.958L246.898 385ZM256.316 375.634L255.462 379.386H254.58L253.726 375.634H256.316ZM259.494 375.634L258.64 379.386H257.758L256.904 375.634H259.494Z" fill="white"/>
<circle cx="3" cy="269" r="3" fill="white"/>
<path d="M36.796 380.226C36.796 380.907 36.6513 381.542 36.362 382.13C36.082 382.709 35.69 383.213 35.186 383.642C34.6913 384.062 34.0987 384.393 33.408 384.636C32.7173 384.879 31.966 385 31.154 385H24.882V379.162H27.794V382.592H31.154C31.5553 382.592 31.924 382.541 32.26 382.438C32.6053 382.326 32.8993 382.172 33.142 381.976C33.3847 381.78 33.576 381.547 33.716 381.276C33.856 380.996 33.926 380.688 33.926 380.352C33.926 380.025 33.856 379.722 33.716 379.442C33.576 379.162 33.38 378.924 33.128 378.728C32.876 378.523 32.582 378.364 32.246 378.252C31.91 378.131 31.546 378.07 31.154 378.07H24.882L26.73 375.634H31.154C31.9753 375.634 32.7313 375.746 33.422 375.97C34.1127 376.194 34.7053 376.511 35.2 376.922C35.704 377.323 36.096 377.809 36.376 378.378C36.656 378.938 36.796 379.554 36.796 380.226ZM49.1448 382.592L47.2828 385H38.2668V375.634H49.1168L47.2408 378.07H41.1788V379.19H48.5988L46.9328 381.318H41.1788V382.592H49.1448ZM62.048 382.592L60.186 385H55.482C54.67 385 53.9186 384.879 53.228 384.636C52.5373 384.393 51.94 384.062 51.436 383.642C50.9413 383.213 50.5493 382.709 50.26 382.13C49.98 381.542 49.84 380.907 49.84 380.226C49.84 379.545 49.98 378.924 50.26 378.364C50.5493 377.795 50.9413 377.309 51.436 376.908C51.94 376.497 52.5373 376.185 53.228 375.97C53.9186 375.746 54.67 375.634 55.482 375.634H62.048L60.186 378.07H55.482C55.09 378.07 54.726 378.126 54.39 378.238C54.054 378.35 53.7646 378.509 53.522 378.714C53.2793 378.91 53.088 379.148 52.948 379.428C52.808 379.708 52.738 380.016 52.738 380.352C52.738 380.688 52.8033 380.996 52.934 381.276C53.074 381.547 53.2653 381.78 53.508 381.976C53.76 382.172 54.054 382.326 54.39 382.438C54.726 382.541 55.09 382.592 55.482 382.592H62.048ZM73.2039 382.592L71.3279 385H63.0539V375.634H65.9519V382.592H73.2039ZM77.1091 385H74.2111V375.634H77.1091V385ZM88.4053 385.154C88.2186 385.154 88.0319 385.121 87.8453 385.056C87.6679 385 87.4673 384.865 87.2433 384.65L81.5033 379.498V385H78.8713V377.23C78.8713 376.922 78.9133 376.656 78.9973 376.432C79.0906 376.208 79.2073 376.026 79.3473 375.886C79.4966 375.746 79.6646 375.643 79.8513 375.578C80.0473 375.513 80.2479 375.48 80.4533 375.48C80.6306 375.48 80.8079 375.513 80.9853 375.578C81.1719 375.634 81.3819 375.769 81.6153 375.984L87.3553 381.136V375.634H90.0013V383.39C90.0013 383.698 89.9546 383.964 89.8613 384.188C89.7773 384.412 89.6606 384.599 89.5113 384.748C89.3713 384.888 89.2033 384.991 89.0073 385.056C88.8113 385.121 88.6106 385.154 88.4053 385.154ZM95.6721 385L97.4221 382.592H99.7741C100.054 382.592 100.343 382.592 100.642 382.592C100.95 382.592 101.216 382.601 101.44 382.62C101.309 382.452 101.155 382.242 100.978 381.99C100.81 381.729 100.647 381.486 100.488 381.262L98.8081 378.784L94.4121 385H90.9821L96.9881 376.53C97.1841 376.259 97.4315 376.017 97.7301 375.802C98.0288 375.587 98.4068 375.48 98.8641 375.48C99.3028 375.48 99.6668 375.583 99.9561 375.788C100.255 375.984 100.507 376.231 100.712 376.53L106.564 385H95.6721ZM119.231 375.634L117.355 378.07H114.009V385H111.111V378.07H106.715L108.591 375.634H119.231ZM123.047 385H120.149V375.634H123.047V385ZM131.403 375.48C133.68 375.48 135.388 375.867 136.527 376.642C137.675 377.417 138.249 378.639 138.249 380.31C138.249 381.99 137.679 383.217 136.541 383.992C135.402 384.767 133.689 385.154 131.403 385.154C129.107 385.154 127.389 384.767 126.251 383.992C125.121 383.217 124.557 381.99 124.557 380.31C124.557 378.639 125.126 377.417 126.265 376.642C127.403 375.867 129.116 375.48 131.403 375.48ZM131.403 382.718C132.131 382.718 132.747 382.69 133.251 382.634C133.755 382.569 134.161 382.447 134.469 382.27C134.786 382.093 135.015 381.85 135.155 381.542C135.295 381.225 135.365 380.814 135.365 380.31C135.365 379.806 135.295 379.4 135.155 379.092C135.015 378.775 134.786 378.532 134.469 378.364C134.161 378.187 133.755 378.07 133.251 378.014C132.747 377.949 132.131 377.916 131.403 377.916C130.675 377.916 130.059 377.949 129.555 378.014C129.051 378.07 128.64 378.187 128.323 378.364C128.015 378.532 127.791 378.775 127.651 379.092C127.511 379.4 127.441 379.806 127.441 380.31C127.441 380.814 127.511 381.225 127.651 381.542C127.791 381.85 128.015 382.093 128.323 382.27C128.64 382.447 129.051 382.569 129.555 382.634C130.059 382.69 130.675 382.718 131.403 382.718ZM149.204 385.154C149.017 385.154 148.831 385.121 148.644 385.056C148.467 385 148.266 384.865 148.042 384.65L142.302 379.498V385H139.67V377.23C139.67 376.922 139.712 376.656 139.796 376.432C139.889 376.208 140.006 376.026 140.146 375.886C140.295 375.746 140.463 375.643 140.65 375.578C140.846 375.513 141.047 375.48 141.252 375.48C141.429 375.48 141.607 375.513 141.784 375.578C141.971 375.634 142.181 375.769 142.414 375.984L148.154 381.136V375.634H150.8V383.39C150.8 383.698 150.753 383.964 150.66 384.188C150.576 384.412 150.459 384.599 150.31 384.748C150.17 384.888 150.002 384.991 149.806 385.056C149.61 385.121 149.409 385.154 149.204 385.154ZM157.938 383.81C157.938 383.371 158.088 383.035 158.386 382.802C158.694 382.559 159.072 382.438 159.52 382.438C159.959 382.438 160.328 382.559 160.626 382.802C160.934 383.035 161.088 383.371 161.088 383.81C161.088 384.239 160.934 384.571 160.626 384.804C160.328 385.037 159.959 385.154 159.52 385.154C159.072 385.154 158.694 385.037 158.386 384.804C158.088 384.571 157.938 384.239 157.938 383.81ZM157.938 379.274C157.938 378.845 158.088 378.513 158.386 378.28C158.694 378.037 159.072 377.916 159.52 377.916C159.959 377.916 160.328 378.037 160.626 378.28C160.934 378.513 161.088 378.845 161.088 379.274C161.088 379.713 160.934 380.049 160.626 380.282C160.328 380.515 159.959 380.632 159.52 380.632C159.072 380.632 158.694 380.515 158.386 380.282C158.088 380.049 157.938 379.713 157.938 379.274Z" fill="#FF9C00"/>
<circle cx="3" cy="325" r="3" fill="white"/>
<circle cx="3" cy="297" r="3" fill="white"/>
<circle cx="3" cy="353" r="3" fill="white"/>
<circle cx="3" cy="381" r="3" fill="white"/>
<path d="M35 192H67C67 195.866 63.866 199 60 199H35V192Z" fill="white"/>
</svg>
